<svg width="24" height="14" viewBox="0 0 24 14" fill="none" xmlns="http://www.w3.org/2000/svg">
<path d="M18.75 7.5H5.25C4.83 7.5 4.5 7.17 4.5 6.75C4.5 6.33 4.83 6 5.25 6H18.75C19.17 6 19.5 6.33 19.5 6.75C19.5 7.17 19.17 7.5 18.75 7.5Z" fill="black"/>
<path d="M9 12.75C8.90164 12.7512 8.80411 12.7318 8.71369 12.6931C8.62328 12.6543 8.54197 12.5971 8.475 12.525L3.225 7.275C2.925 6.975 2.925 6.51 3.225 6.21L8.475 0.975C8.775 0.675 9.24 0.675 9.54 0.975C9.84 1.275 9.84 1.74 9.54 2.04L4.815 6.765L9.54 11.49C9.84 11.79 9.84 12.255 9.54 12.555C9.39 12.705 9.195 12.78 9.015 12.78L9 12.75Z" fill="black"/>
</svg>
