<svg width="24" height="24" viewBox="0 0 24 24" fill="none" xmlns="http://www.w3.org/2000/svg">
<path fill-rule="evenodd" clip-rule="evenodd" d="M22.5035 11.8183L16.2309 14.7463C16.1902 14.6959 16.1467 14.6478 16.1006 14.6023L9.63777 8.13943L9.54863 8.05543L12.4732 1.78971C12.5895 1.5397 12.7645 1.32143 12.9832 1.15344C13.2018 0.985456 13.4578 0.872702 13.7294 0.824751C14.0009 0.776799 14.28 0.795065 14.543 0.877999C14.806 0.960933 15.0451 1.10609 15.2401 1.30114L16.2463 2.30914L13.9458 5.35543C13.7746 5.5823 13.7006 5.86788 13.7399 6.14935C13.7793 6.43081 13.9289 6.68511 14.1558 6.85629C14.3826 7.02746 14.6682 7.10151 14.9497 7.06212C15.2312 7.02274 15.4855 6.87316 15.6566 6.64629L17.7755 3.83829L20.5526 6.61543L17.7738 8.37086C17.6548 8.44605 17.5518 8.54394 17.4706 8.65894C17.3895 8.77393 17.3318 8.90379 17.3008 9.04109C17.2699 9.17838 17.2663 9.32044 17.2902 9.45913C17.3141 9.59783 17.3652 9.73045 17.4403 9.84943C17.5155 9.96841 17.6134 10.0714 17.7284 10.1526C17.8434 10.2337 17.9733 10.2914 18.1106 10.3224C18.2479 10.3533 18.3899 10.3569 18.5286 10.333C18.6673 10.3091 18.7999 10.258 18.9189 10.1829L22.1041 8.16686L22.9903 9.05314C23.1851 9.24796 23.33 9.48684 23.4129 9.74955C23.4957 10.0123 23.514 10.2911 23.4663 10.5624C23.4185 10.8337 23.3061 11.0894 23.1385 11.3081C22.9709 11.5267 22.7531 11.7017 22.5035 11.8183ZM14.5835 16.1177L8.12063 9.65486L1.92177 15.8537C1.48869 16.2761 1.14378 16.7803 0.907043 17.3371C0.670309 17.8938 0.546465 18.492 0.542691 19.097C0.538918 19.7019 0.655291 20.3016 0.885061 20.8613C1.11483 21.4209 1.45343 21.9294 1.88121 22.3571C2.30899 22.7849 2.81745 23.1235 3.37709 23.3533C3.93674 23.5831 4.53643 23.6994 5.14139 23.6957C5.74636 23.6919 6.34455 23.568 6.90129 23.3313C7.45802 23.0946 7.96222 22.7497 8.38463 22.3166L14.5835 16.1177Z" fill="#009688"/>
</svg>
