<svg width="28" height="27" viewBox="0 0 28 27" fill="none" xmlns="http://www.w3.org/2000/svg">
<path d="M1.5 13C1.5 8.28625 1.5 5.92875 2.965 4.465C4.43 3.00125 6.78625 3 11.5 3H16.5C21.2137 3 23.5712 3 25.035 4.465C26.4987 5.93 26.5 8.28625 26.5 13V15.5C26.5 20.2137 26.5 22.5712 25.035 24.035C23.57 25.4987 21.2137 25.5 16.5 25.5H11.5C6.78625 25.5 4.42875 25.5 2.965 24.035C1.50125 22.57 1.5 20.2137 1.5 15.5V13Z" stroke="#787878" stroke-width="1.5"/>
<path d="M7.75 3V1.125M20.25 3V1.125M2.125 9.25H25.875" stroke="#787878" stroke-width="1.5" stroke-linecap="round"/>
<path d="M21.5 19.25C21.5 19.5815 21.3683 19.8995 21.1339 20.1339C20.8995 20.3683 20.5815 20.5 20.25 20.5C19.9185 20.5 19.6005 20.3683 19.3661 20.1339C19.1317 19.8995 19 19.5815 19 19.25C19 18.9185 19.1317 18.6005 19.3661 18.3661C19.6005 18.1317 19.9185 18 20.25 18C20.5815 18 20.8995 18.1317 21.1339 18.3661C21.3683 18.6005 21.5 18.9185 21.5 19.25ZM21.5 14.25C21.5 14.5815 21.3683 14.8995 21.1339 15.1339C20.8995 15.3683 20.5815 15.5 20.25 15.5C19.9185 15.5 19.6005 15.3683 19.3661 15.1339C19.1317 14.8995 19 14.5815 19 14.25C19 13.9185 19.1317 13.6005 19.3661 13.3661C19.6005 13.1317 19.9185 13 20.25 13C20.5815 13 20.8995 13.1317 21.1339 13.3661C21.3683 13.6005 21.5 13.9185 21.5 14.25ZM15.25 19.25C15.25 19.5815 15.1183 19.8995 14.8839 20.1339C14.6495 20.3683 14.3315 20.5 14 20.5C13.6685 20.5 13.3505 20.3683 13.1161 20.1339C12.8817 19.8995 12.75 19.5815 12.75 19.25C12.75 18.9185 12.8817 18.6005 13.1161 18.3661C13.3505 18.1317 13.6685 18 14 18C14.3315 18 14.6495 18.1317 14.8839 18.3661C15.1183 18.6005 15.25 18.9185 15.25 19.25ZM15.25 14.25C15.25 14.5815 15.1183 14.8995 14.8839 15.1339C14.6495 15.3683 14.3315 15.5 14 15.5C13.6685 15.5 13.3505 15.3683 13.1161 15.1339C12.8817 14.8995 12.75 14.5815 12.75 14.25C12.75 13.9185 12.8817 13.6005 13.1161 13.3661C13.3505 13.1317 13.6685 13 14 13C14.3315 13 14.6495 13.1317 14.8839 13.3661C15.1183 13.6005 15.25 13.9185 15.25 14.25ZM9 19.25C9 19.5815 8.8683 19.8995 8.63388 20.1339C8.39946 20.3683 8.08152 20.5 7.75 20.5C7.41848 20.5 7.10054 20.3683 6.86612 20.1339C6.6317 19.8995 6.5 19.5815 6.5 19.25C6.5 18.9185 6.6317 18.6005 6.86612 18.3661C7.10054 18.1317 7.41848 18 7.75 18C8.08152 18 8.39946 18.1317 8.63388 18.3661C8.8683 18.6005 9 18.9185 9 19.25ZM9 14.25C9 14.5815 8.8683 14.8995 8.63388 15.1339C8.39946 15.3683 8.08152 15.5 7.75 15.5C7.41848 15.5 7.10054 15.3683 6.86612 15.1339C6.6317 14.8995 6.5 14.5815 6.5 14.25C6.5 13.9185 6.6317 13.6005 6.86612 13.3661C7.10054 13.1317 7.41848 13 7.75 13C8.08152 13 8.39946 13.1317 8.63388 13.3661C8.8683 13.6005 9 13.9185 9 14.25Z" fill="#787878"/>
</svg>
