<svg width="17" height="16" viewBox="0 0 17 16" fill="none" xmlns="http://www.w3.org/2000/svg">
<path d="M6.40385 3L6.22327 3.203L5.53846 4H1.5V13H16.5V4H12.4615L11.7762 3.203L11.5962 3H6.40385ZM6.98077 4H11.0192L11.7046 4.797L11.8846 5H15.3462V12H2.65385V5H6.11538L6.29596 4.797L6.98077 4ZM4.38462 5.5C4.06731 5.5 3.80769 5.725 3.80769 6C3.80769 6.275 4.06731 6.5 4.38462 6.5C4.70192 6.5 4.96154 6.275 4.96154 6C4.96154 5.725 4.70192 5.5 4.38462 5.5ZM9 5.5C7.09615 5.5 5.53846 6.85 5.53846 8.5C5.53846 10.15 7.09615 11.5 9 11.5C10.9038 11.5 12.4615 10.15 12.4615 8.5C12.4615 6.85 10.9038 5.5 9 5.5ZM9 6.5C10.2825 6.5 11.3077 7.3885 11.3077 8.5C11.3077 9.6115 10.2825 10.5 9 10.5C7.7175 10.5 6.69231 9.6115 6.69231 8.5C6.69231 7.3885 7.7175 6.5 9 6.5Z" fill="white"/>
</svg>
