<svg width="20" height="20" viewBox="0 0 20 20" fill="none" xmlns="http://www.w3.org/2000/svg">
<path d="M9.99996 1.66667C8.90561 1.66667 7.82198 1.88222 6.81093 2.30101C5.79988 2.7198 4.88122 3.33363 4.1074 4.10745C2.5446 5.67025 1.66663 7.78987 1.66663 10C1.66663 12.2101 2.5446 14.3298 4.1074 15.8926C4.88122 16.6664 5.79988 17.2802 6.81093 17.699C7.82198 18.1178 8.90561 18.3333 9.99996 18.3333C12.2101 18.3333 14.3297 17.4554 15.8925 15.8926C17.4553 14.3298 18.3333 12.2101 18.3333 10C18.3333 8.90566 18.1177 7.82202 17.699 6.81098C17.2802 5.79993 16.6663 4.88127 15.8925 4.10745C15.1187 3.33363 14.2 2.7198 13.189 2.30101C12.1779 1.88222 11.0943 1.66667 9.99996 1.66667ZM13.5 13.5L9.16663 10.8333V5.83334H10.4166V10.1667L14.1666 12.4167L13.5 13.5Z" fill="#009688"/>
</svg>
