<svg width="20" height="20" viewBox="0 0 20 20" fill="none" xmlns="http://www.w3.org/2000/svg">
<path fill-rule="evenodd" clip-rule="evenodd" d="M7.2129 0.394284C5.28005 0.957319 3.56178 2.08984 2.28225 3.64408C1.00271 5.19833 0.22133 7.10214 0.0400391 9.10714H4.61147C4.87794 6.05607 5.76256 3.09114 7.21147 0.392855L7.2129 0.394284ZM4.61147 10.8929H0.0400391C0.220953 12.8979 1.002 14.8019 2.28128 16.3564C3.56057 17.9109 5.27868 19.0438 7.21147 19.6071C5.76256 16.9089 4.87794 13.9439 4.61147 10.8929ZM9.5029 19.9886C7.77087 17.2416 6.70896 14.1258 6.4029 10.8929H13.5958C13.2897 14.1258 12.2278 17.2416 10.4958 19.9886C10.165 20.005 9.83364 20.005 9.5029 19.9886ZM12.7886 19.6057C14.7212 19.0424 16.4392 17.9098 17.7184 16.3556C18.9977 14.8014 19.7789 12.8977 19.96 10.8929H15.3886C15.1221 13.9439 14.2375 16.9089 12.7886 19.6071V19.6057ZM15.3886 9.10714H19.96C19.7791 7.10207 18.9981 5.19807 17.7188 3.64357C16.4395 2.08906 14.7214 0.956223 12.7886 0.392855C14.2375 3.09114 15.1221 6.05607 15.3886 9.10714ZM9.5029 0.0114268C9.83412 -0.00506015 10.166 -0.00506015 10.4972 0.0114268C12.2287 2.75855 13.2901 5.87427 13.5958 9.10714H6.40433C6.71432 5.85428 7.77861 2.73571 9.5029 0.0114268Z" fill="#009688"/>
</svg>
