<svg width="20" height="20" viewBox="0 0 20 20" fill="none" xmlns="http://www.w3.org/2000/svg">
<path d="M10.8333 2.5C8.8442 2.5 6.93655 3.29018 5.53003 4.6967C4.1235 6.10322 3.33333 8.01088 3.33333 10H0.833328L4.07499 13.2417L4.13333 13.3583L7.49999 10H4.99999C4.99999 6.775 7.60833 4.16667 10.8333 4.16667C14.0583 4.16667 16.6667 6.775 16.6667 10C16.6667 13.225 14.0583 15.8333 10.8333 15.8333C9.22499 15.8333 7.76666 15.175 6.71666 14.1167L5.53333 15.3C6.22773 15.9985 7.0536 16.5525 7.96327 16.9301C8.87295 17.3077 9.8484 17.5014 10.8333 17.5C12.8225 17.5 14.7301 16.7098 16.1366 15.3033C17.5431 13.8968 18.3333 11.9891 18.3333 10C18.3333 8.01088 17.5431 6.10322 16.1366 4.6967C14.7301 3.29018 12.8225 2.5 10.8333 2.5ZM9.99999 6.66667V10.8333L13.5667 12.95L14.1667 11.9417L11.25 10.2083V6.66667H9.99999Z" fill="#009688"/>
</svg>
