<svg width="20" height="20" viewBox="0 0 20 20" fill="none" xmlns="http://www.w3.org/2000/svg">
<path d="M10.4942 19.3817L10.485 19.3833L10.4259 19.4125L10.4092 19.4158L10.3975 19.4125L10.3384 19.3833C10.3295 19.3806 10.3228 19.3819 10.3184 19.3875L10.315 19.3958L10.3009 19.7525L10.305 19.7692L10.3134 19.78L10.4 19.8417L10.4125 19.845L10.4225 19.8417L10.5092 19.78L10.5192 19.7667L10.5225 19.7525L10.5084 19.3967C10.5061 19.3878 10.5014 19.3828 10.4942 19.3817ZM10.715 19.2875L10.7042 19.2892L10.55 19.3667L10.5417 19.375L10.5392 19.3842L10.5542 19.7425L10.5584 19.7525L10.565 19.7583L10.7325 19.8358C10.7431 19.8386 10.7511 19.8364 10.7567 19.8292L10.76 19.8175L10.7317 19.3058C10.7289 19.2958 10.7234 19.2897 10.715 19.2875ZM10.1192 19.2892C10.1155 19.2869 10.1111 19.2862 10.1069 19.2872C10.1027 19.2881 10.0991 19.2906 10.0967 19.2942L10.0917 19.3058L10.0634 19.8175C10.0639 19.8275 10.0686 19.8342 10.0775 19.8375L10.09 19.8358L10.2575 19.7583L10.2659 19.7517L10.2692 19.7425L10.2834 19.3842L10.2809 19.3742L10.2725 19.3658L10.1192 19.2892Z" fill="#009688"/>
<path d="M10 1.66667C11.9891 1.66667 13.8968 2.45685 15.3033 3.86337C16.7098 5.26989 17.5 7.17755 17.5 9.16667C17.5 11.7283 16.1033 13.825 14.6317 15.3292C13.8964 16.0726 13.0941 16.7465 12.235 17.3425L11.88 17.5842L11.7133 17.695L11.3992 17.895L11.1192 18.0658L10.7725 18.2675C10.5372 18.4018 10.2709 18.4725 10 18.4725C9.72906 18.4725 9.4628 18.4018 9.2275 18.2675L8.88083 18.0658L8.4475 17.7992L8.2875 17.695L7.94583 17.4675C7.01903 16.8404 6.15575 16.1243 5.36833 15.3292C3.89667 13.8242 2.5 11.7283 2.5 9.16667C2.5 7.17755 3.29018 5.26989 4.6967 3.86337C6.10322 2.45685 8.01088 1.66667 10 1.66667ZM10 6.66667C9.6717 6.66667 9.34661 6.73134 9.04329 6.85697C8.73998 6.98261 8.46438 7.16676 8.23223 7.3989C8.00009 7.63105 7.81594 7.90665 7.6903 8.20996C7.56466 8.51328 7.5 8.83837 7.5 9.16667C7.5 9.49498 7.56466 9.82007 7.6903 10.1234C7.81594 10.4267 8.00009 10.7023 8.23223 10.9344C8.46438 11.1666 8.73998 11.3507 9.04329 11.4764C9.34661 11.602 9.6717 11.6667 10 11.6667C10.663 11.6667 11.2989 11.4033 11.7678 10.9344C12.2366 10.4656 12.5 9.82971 12.5 9.16667C12.5 8.50363 12.2366 7.86775 11.7678 7.3989C11.2989 6.93006 10.663 6.66667 10 6.66667Z" fill="#009688"/>
</svg>
