<svg width="20" height="20" viewBox="0 0 20 20" fill="none" xmlns="http://www.w3.org/2000/svg">
<path d="M10 16.8C6.24 16.8 3.2 13.76 3.2 9.99995C3.2 6.23995 6.24 3.19995 10 3.19995C13.76 3.19995 16.8 6.23995 16.8 9.99995C16.8 13.76 13.76 16.8 10 16.8ZM10 3.99995C6.68 3.99995 4 6.67995 4 9.99995C4 13.32 6.68 16 10 16C13.32 16 16 13.32 16 9.99995C16 6.67995 13.32 3.99995 10 3.99995Z" fill="#009688"/>
<path d="M9.88001 13.88L9.32001 13.32L12.64 9.99999L9.32001 6.68L9.88001 6.12L13.76 9.99999L9.88001 13.88Z" fill="#009688"/>
<path d="M6.39999 9.59998H13.2V10.4H6.39999V9.59998Z" fill="#009688"/>
</svg>
