<svg width="24" height="24" viewBox="0 0 24 24" fill="none" xmlns="http://www.w3.org/2000/svg">
<path d="M9.35364 6.98138C8.42852 6.49875 7.52552 6.33787 6.95552 6.7425C6.55277 7.02937 6.37464 7.56375 6.36602 8.21025C5.42834 7.30808 4.66986 6.2366 4.13064 5.05237V0.75H2.41276V5.05387H2.42139C2.12551 6.07238 1.87276 7.26675 1.87501 8.38912C1.87801 10.6541 3.65177 11.7941 5.09477 11.7941C5.11539 11.7941 5.13414 11.7896 5.15477 11.7892C5.39584 11.7869 5.63507 11.747 5.86389 11.6711L5.87702 11.6659C6.11364 11.5837 6.32589 11.4645 6.49502 11.2987C6.49502 11.2987 6.24452 11.1221 5.87177 10.7633C6.10539 10.7801 6.36114 10.7745 6.61652 10.7467C6.81189 11.67 7.23452 12.6581 7.57089 13.1141L14.9561 23.25H16.7595L10.077 13.536C10.5934 13.5244 11.0921 13.3208 11.5549 12.9915C12.6968 12.1808 13.1895 10.9361 11.8868 9.16388C11.5846 8.7589 11.2422 8.3855 10.8649 8.04938C11.3235 8.34037 11.886 8.823 12.498 9.61762C14.7848 12.5812 22.125 22.7183 22.125 22.7183V21.3889C22.125 21.3889 15.4095 12.1436 13.1164 9.17062C11.5358 7.12125 9.98139 6.66338 9.35364 6.98138ZM3.63301 9.92813C4.00426 10.8656 5.53502 11.3111 5.53502 11.3111C4.56302 11.8575 2.16226 10.5446 2.15926 8.38875C2.15776 7.27275 2.41764 6.06975 2.71802 5.0535H3.16764C4.09914 8.25937 6.36527 9.08775 6.36527 9.08775C5.40677 9.08775 4.28214 8.80013 4.28214 8.80013C5.23427 9.89025 7.26152 10.107 7.26152 10.107C5.48664 10.494 3.63301 9.92813 3.63301 9.92813ZM11.4645 9.34088C12.6326 10.9283 12.1354 11.823 11.7544 12.0938C11.3741 12.3641 11.4056 11.8009 10.2375 10.2127C9.06864 8.62575 7.35452 7.21425 7.73552 6.94388C8.11614 6.67425 10.2964 7.7535 11.4645 9.34088ZM21.1298 8.70525C21.213 8.83913 22.125 10.4396 22.125 10.44V8.86538C22.125 8.86538 21.8753 8.45438 21.7894 8.31863C20.8005 6.738 19.4963 5.86838 18.7185 5.826C18.5419 5.81775 18.408 5.85225 18.309 5.901C17.4923 5.40112 16.6778 5.196 16.1198 5.526C15.4613 5.91525 15.303 6.95963 15.492 8.11725C15.2516 9.11512 15.7609 10.9451 16.182 11.6325L22.125 21.0187V18.4226L18.5618 12.2321C19.0429 12.2535 19.5233 12.0997 19.9804 11.8298C21.1316 11.1488 21.7031 10.0054 20.6081 8.217C20.3796 7.84909 20.118 7.50278 19.8266 7.18237C20.2316 7.515 20.6903 8.00363 21.1298 8.70525ZM20.2433 10.9924C19.8604 11.2185 19.9365 10.6853 18.9555 9.084C17.9745 7.48275 16.461 6.00525 16.8439 5.77875C17.2275 5.55188 19.2116 6.75075 20.1919 8.352C21.1736 9.95362 20.6288 10.7651 20.2433 10.9924Z" fill="#009688"/>
<path d="M5.49107 15.7778L5.49632 15.7845C4.55957 15.3735 3.66145 15.2741 3.1402 15.7091C2.55482 16.1989 2.57245 17.256 2.95045 18.3682C2.87995 19.3912 3.68432 21.1136 4.21382 21.7245L5.44982 23.25H7.46845L6.46495 21.9491C7.01732 21.9412 7.53295 21.6971 7.99345 21.312C9.01682 20.4559 9.39107 19.2356 8.01482 17.6471C7.7227 17.3096 7.3792 16.9909 7.01207 16.7044C7.46395 16.9627 8.0212 17.3869 8.61332 18.0465C9.74845 19.3118 13.1189 23.25 13.1189 23.25H14.0999C14.0999 23.25 10.3376 18.8284 9.1957 17.5568C7.83257 16.038 6.20732 15.2565 5.49107 15.7778ZM7.62745 17.8466C8.86007 19.2701 8.45582 20.1578 8.11532 20.4443C7.77407 20.7285 7.76095 20.1904 6.52757 18.7669C5.29495 17.3434 3.55757 16.1288 3.89732 15.8426C4.23782 15.5573 6.39407 16.4239 7.62745 17.8466Z" fill="#009688"/>
</svg>
