<svg width="20" height="20" viewBox="0 0 20 20" fill="none" xmlns="http://www.w3.org/2000/svg">
<path fill-rule="evenodd" clip-rule="evenodd" d="M2.5641 8.33329C2.5641 8.16328 2.63164 8.00023 2.75185 7.88001C2.87207 7.7598 3.03512 7.69226 3.20513 7.69226H13.4615C13.6315 7.69226 13.7946 7.7598 13.9148 7.88001C14.035 8.00023 14.1026 8.16328 14.1026 8.33329C14.1026 8.5033 14.035 8.66634 13.9148 8.78656C13.7946 8.90678 13.6315 8.97431 13.4615 8.97431H3.20513C3.03512 8.97431 2.87207 8.90678 2.75185 8.78656C2.63164 8.66634 2.5641 8.5033 2.5641 8.33329Z" fill="#009688"/>
<path fill-rule="evenodd" clip-rule="evenodd" d="M8.33333 15.3846C12.2276 15.3846 15.3846 12.2276 15.3846 8.33333C15.3846 4.4391 12.2276 1.28205 8.33333 1.28205C4.4391 1.28205 1.28205 4.4391 1.28205 8.33333C1.28205 12.2276 4.4391 15.3846 8.33333 15.3846ZM8.33333 16.6667C12.9359 16.6667 16.6667 12.9359 16.6667 8.33333C16.6667 3.73077 12.9359 0 8.33333 0C3.73077 0 0 3.73077 0 8.33333C0 12.9359 3.73077 16.6667 8.33333 16.6667Z" fill="#009688"/>
</svg>
