<svg width="359" height="167" viewBox="0 0 359 167" fill="none" xmlns="http://www.w3.org/2000/svg">
<rect x="23" y="30" width="322" height="137" rx="20" fill="#009688"/>
<circle opacity="0.3" cx="324" cy="51" r="35" fill="white"/>
<path opacity="0.3" d="M47.6314 89L47.6313 140L95.2628 167H0L47.6314 89Z" fill="white"/>
<ellipse opacity="0.3" cx="158" cy="32" rx="30" ry="32" fill="white"/>
<path d="M76.267 67.447H72.211V69.241C72.3843 69.0503 72.627 68.8943 72.939 68.773C73.251 68.6517 73.589 68.591 73.953 68.591C74.603 68.591 75.1403 68.7383 75.565 69.033C75.9983 69.3277 76.3147 69.709 76.514 70.177C76.7133 70.645 76.813 71.152 76.813 71.698C76.813 72.712 76.527 73.518 75.955 74.116C75.383 74.7053 74.577 75 73.537 75C72.8437 75 72.2413 74.883 71.73 74.649C71.2187 74.4063 70.8243 74.0727 70.547 73.648C70.2697 73.2233 70.118 72.7337 70.092 72.179H72.263C72.315 72.4477 72.4407 72.673 72.64 72.855C72.8393 73.0283 73.1123 73.115 73.459 73.115C73.8663 73.115 74.1697 72.985 74.369 72.725C74.5683 72.465 74.668 72.1183 74.668 71.685C74.668 71.2603 74.564 70.9353 74.356 70.71C74.148 70.4847 73.8447 70.372 73.446 70.372C73.1513 70.372 72.9087 70.4457 72.718 70.593C72.5273 70.7317 72.4017 70.918 72.341 71.152H70.196V65.497H76.267V67.447ZM78.0401 70.125C78.0401 68.6343 78.3261 67.46 78.8981 66.602C79.4787 65.744 80.4104 65.315 81.6931 65.315C82.9757 65.315 83.9031 65.744 84.4751 66.602C85.0557 67.46 85.3461 68.6343 85.3461 70.125C85.3461 71.633 85.0557 72.816 84.4751 73.674C83.9031 74.532 82.9757 74.961 81.6931 74.961C80.4104 74.961 79.4787 74.532 78.8981 73.674C78.3261 72.816 78.0401 71.633 78.0401 70.125ZM83.1621 70.125C83.1621 69.2497 83.0667 68.578 82.8761 68.11C82.6854 67.6333 82.2911 67.395 81.6931 67.395C81.0951 67.395 80.7007 67.6333 80.5101 68.11C80.3194 68.578 80.2241 69.2497 80.2241 70.125C80.2241 70.7143 80.2587 71.204 80.3281 71.594C80.3974 71.9753 80.5361 72.2873 80.7441 72.53C80.9607 72.764 81.2771 72.881 81.6931 72.881C82.1091 72.881 82.4211 72.764 82.6291 72.53C82.8457 72.2873 82.9887 71.9753 83.0581 71.594C83.1274 71.204 83.1621 70.7143 83.1621 70.125ZM86.3385 67.902C86.3385 67.2 86.5379 66.6583 86.9365 66.277C87.3439 65.8957 87.8682 65.705 88.5095 65.705C89.1509 65.705 89.6709 65.8957 90.0695 66.277C90.4682 66.6583 90.6675 67.2 90.6675 67.902C90.6675 68.604 90.4682 69.1457 90.0695 69.527C89.6709 69.9083 89.1509 70.099 88.5095 70.099C87.8682 70.099 87.3439 69.9083 86.9365 69.527C86.5379 69.1457 86.3385 68.604 86.3385 67.902ZM95.1655 65.848L90.1605 75H88.0155L93.0205 65.848H95.1655ZM88.4965 67.005C88.0805 67.005 87.8725 67.304 87.8725 67.902C87.8725 68.4913 88.0805 68.786 88.4965 68.786C88.6959 68.786 88.8519 68.7123 88.9645 68.565C89.0772 68.4177 89.1335 68.1967 89.1335 67.902C89.1335 67.304 88.9212 67.005 88.4965 67.005ZM92.5265 72.946C92.5265 72.244 92.7259 71.7023 93.1245 71.321C93.5232 70.9397 94.0432 70.749 94.6845 70.749C95.3259 70.749 95.8459 70.9397 96.2445 71.321C96.6432 71.7023 96.8425 72.244 96.8425 72.946C96.8425 73.648 96.6432 74.1897 96.2445 74.571C95.8459 74.9523 95.3259 75.143 94.6845 75.143C94.0432 75.143 93.5232 74.9523 93.1245 74.571C92.7259 74.1897 92.5265 73.648 92.5265 72.946ZM94.6715 72.049C94.4722 72.049 94.3162 72.1227 94.2035 72.27C94.0995 72.4173 94.0475 72.6427 94.0475 72.946C94.0475 73.5353 94.2555 73.83 94.6715 73.83C94.8709 73.83 95.0269 73.7563 95.1395 73.609C95.2522 73.4617 95.3085 73.2407 95.3085 72.946C95.3085 72.6513 95.2522 72.4303 95.1395 72.283C95.0269 72.127 94.8709 72.049 94.6715 72.049ZM104.11 75.104C103.399 75.104 102.758 74.9523 102.186 74.649C101.623 74.3457 101.176 73.9123 100.847 73.349C100.526 72.7857 100.366 72.127 100.366 71.373C100.366 70.6277 100.531 69.9733 100.86 69.41C101.189 68.838 101.64 68.4003 102.212 68.097C102.784 67.7937 103.425 67.642 104.136 67.642C104.847 67.642 105.488 67.7937 106.06 68.097C106.632 68.4003 107.083 68.838 107.412 69.41C107.741 69.9733 107.906 70.6277 107.906 71.373C107.906 72.1183 107.737 72.777 107.399 73.349C107.07 73.9123 106.615 74.3457 106.034 74.649C105.462 74.9523 104.821 75.104 104.11 75.104ZM104.11 73.18C104.535 73.18 104.894 73.024 105.189 72.712C105.492 72.4 105.644 71.9537 105.644 71.373C105.644 70.7923 105.497 70.346 105.202 70.034C104.916 69.722 104.561 69.566 104.136 69.566C103.703 69.566 103.343 69.722 103.057 70.034C102.771 70.3373 102.628 70.7837 102.628 71.373C102.628 71.9537 102.767 72.4 103.044 72.712C103.33 73.024 103.685 73.18 104.11 73.18ZM112.725 69.592H111.529V75H109.306V69.592H108.5V67.746H109.306V67.538C109.306 66.6453 109.562 65.9693 110.073 65.51C110.585 65.042 111.334 64.808 112.322 64.808C112.487 64.808 112.608 64.8123 112.686 64.821V66.706C112.262 66.68 111.963 66.7407 111.789 66.888C111.616 67.0353 111.529 67.2997 111.529 67.681V67.746H112.725V69.592ZM117.41 69.592H116.214V75H113.991V69.592H113.185V67.746H113.991V67.538C113.991 66.6453 114.247 65.9693 114.758 65.51C115.269 65.042 116.019 64.808 117.007 64.808C117.172 64.808 117.293 64.8123 117.371 64.821V66.706C116.946 66.68 116.647 66.7407 116.474 66.888C116.301 67.0353 116.214 67.2997 116.214 67.681V67.746H117.41V69.592Z" fill="#D8E9E7"/>
<path d="M56.704 82.832V84.64H53.728V94H51.488V84.64H48.512V82.832H56.704ZM62.2744 94.144C61.421 94.144 60.653 93.9573 59.9704 93.584C59.2877 93.2 58.749 92.6613 58.3544 91.968C57.9704 91.2747 57.7784 90.4747 57.7784 89.568C57.7784 88.6613 57.9757 87.8613 58.3704 87.168C58.7757 86.4747 59.325 85.9413 60.0184 85.568C60.7117 85.184 61.485 84.992 62.3384 84.992C63.1917 84.992 63.965 85.184 64.6584 85.568C65.3517 85.9413 65.8957 86.4747 66.2904 87.168C66.6957 87.8613 66.8984 88.6613 66.8984 89.568C66.8984 90.4747 66.6904 91.2747 66.2744 91.968C65.869 92.6613 65.3144 93.2 64.6104 93.584C63.917 93.9573 63.1384 94.144 62.2744 94.144ZM62.2744 92.192C62.6797 92.192 63.0584 92.096 63.4104 91.904C63.773 91.7013 64.061 91.4027 64.2744 91.008C64.4877 90.6133 64.5944 90.1333 64.5944 89.568C64.5944 88.7253 64.3704 88.08 63.9224 87.632C63.485 87.1733 62.9464 86.944 62.3064 86.944C61.6664 86.944 61.1277 87.1733 60.6904 87.632C60.2637 88.08 60.0504 88.7253 60.0504 89.568C60.0504 90.4107 60.2584 91.0613 60.6744 91.52C61.101 91.968 61.6344 92.192 62.2744 92.192ZM67.9655 89.536C67.9655 88.64 68.1415 87.8453 68.4935 87.152C68.8562 86.4587 69.3468 85.9253 69.9655 85.552C70.5842 85.1787 71.2722 84.992 72.0295 84.992C72.6055 84.992 73.1548 85.12 73.6775 85.376C74.2002 85.6213 74.6162 85.952 74.9255 86.368V82.16H77.1975V94H74.9255V92.688C74.6482 93.1253 74.2588 93.4773 73.7575 93.744C73.2562 94.0107 72.6748 94.144 72.0135 94.144C71.2668 94.144 70.5842 93.952 69.9655 93.568C69.3468 93.184 68.8562 92.6453 68.4935 91.952C68.1415 91.248 67.9655 90.4427 67.9655 89.536ZM74.9415 89.568C74.9415 89.024 74.8348 88.56 74.6215 88.176C74.4082 87.7813 74.1202 87.4827 73.7575 87.28C73.3948 87.0667 73.0055 86.96 72.5895 86.96C72.1735 86.96 71.7895 87.0613 71.4375 87.264C71.0855 87.4667 70.7975 87.7653 70.5735 88.16C70.3602 88.544 70.2535 89.0027 70.2535 89.536C70.2535 90.0693 70.3602 90.5387 70.5735 90.944C70.7975 91.3387 71.0855 91.6427 71.4375 91.856C71.8002 92.0693 72.1842 92.176 72.5895 92.176C73.0055 92.176 73.3948 92.0747 73.7575 91.872C74.1202 91.6587 74.4082 91.36 74.6215 90.976C74.8348 90.5813 74.9415 90.112 74.9415 89.568ZM78.8092 89.536C78.8092 88.64 78.9852 87.8453 79.3372 87.152C79.6999 86.4587 80.1853 85.9253 80.7933 85.552C81.4119 85.1787 82.0999 84.992 82.8573 84.992C83.5186 84.992 84.0946 85.1253 84.5853 85.392C85.0866 85.6587 85.4866 85.9947 85.7853 86.4V85.136H88.0413V94H85.7853V92.704C85.4973 93.12 85.0973 93.4667 84.5853 93.744C84.0839 94.0107 83.5026 94.144 82.8413 94.144C82.0946 94.144 81.4119 93.952 80.7933 93.568C80.1853 93.184 79.6999 92.6453 79.3372 91.952C78.9852 91.248 78.8092 90.4427 78.8092 89.536ZM85.7853 89.568C85.7853 89.024 85.6786 88.56 85.4653 88.176C85.2519 87.7813 84.9639 87.4827 84.6013 87.28C84.2386 87.0667 83.8493 86.96 83.4333 86.96C83.0173 86.96 82.6333 87.0613 82.2812 87.264C81.9293 87.4667 81.6413 87.7653 81.4173 88.16C81.2039 88.544 81.0973 89.0027 81.0973 89.536C81.0973 90.0693 81.2039 90.5387 81.4173 90.944C81.6413 91.3387 81.9293 91.6427 82.2812 91.856C82.6439 92.0693 83.0279 92.176 83.4333 92.176C83.8493 92.176 84.2386 92.0747 84.6013 91.872C84.9639 91.6587 85.2519 91.36 85.4653 90.976C85.6786 90.5813 85.7853 90.112 85.7853 89.568ZM98.709 85.136L93.221 98.192H90.837L92.757 93.776L89.205 85.136H91.717L94.005 91.328L96.325 85.136H98.709ZM100.365 82.832H102.717L100.989 86.864H99.4525L100.365 82.832ZM107.715 94.144C106.989 94.144 106.339 94.016 105.763 93.76C105.187 93.4933 104.728 93.136 104.387 92.688C104.056 92.24 103.875 91.744 103.843 91.2H106.099C106.141 91.5413 106.307 91.824 106.595 92.048C106.893 92.272 107.261 92.384 107.699 92.384C108.125 92.384 108.456 92.2987 108.691 92.128C108.936 91.9573 109.059 91.7387 109.059 91.472C109.059 91.184 108.909 90.9707 108.611 90.832C108.323 90.6827 107.859 90.5227 107.219 90.352C106.557 90.192 106.013 90.0267 105.587 89.856C105.171 89.6853 104.808 89.424 104.499 89.072C104.2 88.72 104.051 88.2453 104.051 87.648C104.051 87.1573 104.189 86.7093 104.467 86.304C104.755 85.8987 105.16 85.5787 105.683 85.344C106.216 85.1093 106.84 84.992 107.555 84.992C108.611 84.992 109.453 85.2587 110.083 85.792C110.712 86.3147 111.059 87.024 111.123 87.92H108.979C108.947 87.568 108.797 87.2907 108.531 87.088C108.275 86.8747 107.928 86.768 107.491 86.768C107.085 86.768 106.771 86.8427 106.547 86.992C106.333 87.1413 106.227 87.3493 106.227 87.616C106.227 87.9147 106.376 88.144 106.675 88.304C106.973 88.4533 107.437 88.608 108.067 88.768C108.707 88.928 109.235 89.0933 109.651 89.264C110.067 89.4347 110.424 89.7013 110.723 90.064C111.032 90.416 111.192 90.8853 111.203 91.472C111.203 91.984 111.059 92.4427 110.771 92.848C110.493 93.2533 110.088 93.5733 109.555 93.808C109.032 94.032 108.419 94.144 107.715 94.144ZM120.71 94.112C119.931 94.112 119.227 93.9787 118.598 93.712C117.979 93.4453 117.489 93.0613 117.126 92.56C116.763 92.0587 116.577 91.4667 116.566 90.784H118.966C118.998 91.2427 119.158 91.6053 119.446 91.872C119.745 92.1387 120.15 92.272 120.662 92.272C121.185 92.272 121.595 92.1493 121.894 91.904C122.193 91.648 122.342 91.3173 122.342 90.912C122.342 90.5813 122.241 90.3093 122.038 90.096C121.835 89.8827 121.579 89.7173 121.27 89.6C120.971 89.472 120.555 89.3333 120.022 89.184C119.297 88.9707 118.705 88.7627 118.246 88.56C117.798 88.3467 117.409 88.032 117.078 87.616C116.758 87.1893 116.598 86.624 116.598 85.92C116.598 85.2587 116.763 84.6827 117.094 84.192C117.425 83.7013 117.889 83.328 118.486 83.072C119.083 82.8053 119.766 82.672 120.534 82.672C121.686 82.672 122.619 82.9547 123.334 83.52C124.059 84.0747 124.459 84.8533 124.534 85.856H122.07C122.049 85.472 121.883 85.1573 121.574 84.912C121.275 84.656 120.875 84.528 120.374 84.528C119.937 84.528 119.585 84.64 119.318 84.864C119.062 85.088 118.934 85.4133 118.934 85.84C118.934 86.1387 119.03 86.3893 119.222 86.592C119.425 86.784 119.67 86.944 119.958 87.072C120.257 87.1893 120.673 87.328 121.206 87.488C121.931 87.7013 122.523 87.9147 122.982 88.128C123.441 88.3413 123.835 88.6613 124.166 89.088C124.497 89.5147 124.662 90.0747 124.662 90.768C124.662 91.3653 124.507 91.92 124.198 92.432C123.889 92.944 123.435 93.3547 122.838 93.664C122.241 93.9627 121.531 94.112 120.71 94.112ZM128.844 86.416C129.132 86.0107 129.527 85.6747 130.028 85.408C130.54 85.1307 131.121 84.992 131.772 84.992C132.529 84.992 133.212 85.1787 133.82 85.552C134.439 85.9253 134.924 86.4587 135.276 87.152C135.639 87.8347 135.82 88.6293 135.82 89.536C135.82 90.4427 135.639 91.248 135.276 91.952C134.924 92.6453 134.439 93.184 133.82 93.568C133.212 93.952 132.529 94.144 131.772 94.144C131.121 94.144 130.545 94.0107 130.044 93.744C129.553 93.4773 129.153 93.1413 128.844 92.736V98.224H126.604V85.136H128.844V86.416ZM133.532 89.536C133.532 89.0027 133.42 88.544 133.196 88.16C132.983 87.7653 132.695 87.4667 132.332 87.264C131.98 87.0613 131.596 86.96 131.18 86.96C130.775 86.96 130.391 87.0667 130.028 87.28C129.676 87.4827 129.388 87.7813 129.164 88.176C128.951 88.5707 128.844 89.0347 128.844 89.568C128.844 90.1013 128.951 90.5653 129.164 90.96C129.388 91.3547 129.676 91.6587 130.028 91.872C130.391 92.0747 130.775 92.176 131.18 92.176C131.596 92.176 131.98 92.0693 132.332 91.856C132.695 91.6427 132.983 91.3387 133.196 90.944C133.42 90.5493 133.532 90.08 133.532 89.536ZM145.688 89.376C145.688 89.696 145.666 89.984 145.624 90.24H139.144C139.197 90.88 139.421 91.3813 139.816 91.744C140.21 92.1067 140.696 92.288 141.272 92.288C142.104 92.288 142.696 91.9307 143.048 91.216H145.464C145.208 92.0693 144.717 92.7733 143.992 93.328C143.266 93.872 142.376 94.144 141.32 94.144C140.466 94.144 139.698 93.9573 139.016 93.584C138.344 93.2 137.816 92.6613 137.432 91.968C137.058 91.2747 136.872 90.4747 136.872 89.568C136.872 88.6507 137.058 87.8453 137.432 87.152C137.805 86.4587 138.328 85.9253 139 85.552C139.672 85.1787 140.445 84.992 141.32 84.992C142.162 84.992 142.914 85.1733 143.576 85.536C144.248 85.8987 144.765 86.416 145.128 87.088C145.501 87.7493 145.688 88.512 145.688 89.376ZM143.368 88.736C143.357 88.16 143.149 87.7013 142.744 87.36C142.338 87.008 141.842 86.832 141.256 86.832C140.701 86.832 140.232 87.0027 139.848 87.344C139.474 87.6747 139.245 88.1387 139.16 88.736H143.368ZM146.747 89.568C146.747 88.6507 146.933 87.8507 147.307 87.168C147.68 86.4747 148.197 85.9413 148.859 85.568C149.52 85.184 150.277 84.992 151.131 84.992C152.229 84.992 153.136 85.2693 153.851 85.824C154.576 86.368 155.061 87.136 155.307 88.128H152.891C152.763 87.744 152.544 87.4453 152.235 87.232C151.936 87.008 151.563 86.896 151.115 86.896C150.475 86.896 149.968 87.1307 149.595 87.6C149.221 88.0587 149.035 88.7147 149.035 89.568C149.035 90.4107 149.221 91.0667 149.595 91.536C149.968 91.9947 150.475 92.224 151.115 92.224C152.021 92.224 152.613 91.8187 152.891 91.008H155.307C155.061 91.968 154.576 92.7307 153.851 93.296C153.125 93.8613 152.219 94.144 151.131 94.144C150.277 94.144 149.52 93.9573 148.859 93.584C148.197 93.2 147.68 92.6667 147.307 91.984C146.933 91.2907 146.747 90.4853 146.747 89.568ZM158.084 84.08C157.689 84.08 157.358 83.9573 157.092 83.712C156.836 83.456 156.708 83.1413 156.708 82.768C156.708 82.3947 156.836 82.0853 157.092 81.84C157.358 81.584 157.689 81.456 158.084 81.456C158.478 81.456 158.804 81.584 159.06 81.84C159.326 82.0853 159.46 82.3947 159.46 82.768C159.46 83.1413 159.326 83.456 159.06 83.712C158.804 83.9573 158.478 84.08 158.084 84.08ZM159.188 85.136V94H156.948V85.136H159.188ZM160.825 89.536C160.825 88.64 161.001 87.8453 161.353 87.152C161.716 86.4587 162.201 85.9253 162.809 85.552C163.428 85.1787 164.116 84.992 164.873 84.992C165.534 84.992 166.11 85.1253 166.601 85.392C167.102 85.6587 167.502 85.9947 167.801 86.4V85.136H170.057V94H167.801V92.704C167.513 93.12 167.113 93.4667 166.601 93.744C166.1 94.0107 165.518 94.144 164.857 94.144C164.11 94.144 163.428 93.952 162.809 93.568C162.201 93.184 161.716 92.6453 161.353 91.952C161.001 91.248 160.825 90.4427 160.825 89.536ZM167.801 89.568C167.801 89.024 167.694 88.56 167.481 88.176C167.268 87.7813 166.98 87.4827 166.617 87.28C166.254 87.0667 165.865 86.96 165.449 86.96C165.033 86.96 164.649 87.0613 164.297 87.264C163.945 87.4667 163.657 87.7653 163.433 88.16C163.22 88.544 163.113 89.0027 163.113 89.536C163.113 90.0693 163.22 90.5387 163.433 90.944C163.657 91.3387 163.945 91.6427 164.297 91.856C164.66 92.0693 165.044 92.176 165.449 92.176C165.865 92.176 166.254 92.0747 166.617 91.872C166.98 91.6587 167.268 91.36 167.481 90.976C167.694 90.5813 167.801 90.112 167.801 89.568ZM174.485 82.16V94H172.245V82.16H174.485Z" fill="white"/>
<path d="M47.105 113.632C46.929 113.309 46.687 113.064 46.379 112.895C46.071 112.726 45.7117 112.642 45.301 112.642C44.8463 112.642 44.443 112.745 44.091 112.95C43.739 113.155 43.464 113.449 43.266 113.83C43.068 114.211 42.969 114.651 42.969 115.15C42.969 115.663 43.068 116.111 43.266 116.492C43.4713 116.873 43.7537 117.167 44.113 117.372C44.4723 117.577 44.8903 117.68 45.367 117.68C45.9537 117.68 46.434 117.526 46.808 117.218C47.182 116.903 47.4277 116.466 47.545 115.909H44.905V114.732H49.063V116.074C48.9603 116.609 48.7403 117.104 48.403 117.559C48.0657 118.014 47.6293 118.38 47.094 118.659C46.566 118.93 45.972 119.066 45.312 119.066C44.5713 119.066 43.9003 118.901 43.299 118.571C42.705 118.234 42.2357 117.768 41.891 117.174C41.5537 116.58 41.385 115.905 41.385 115.15C41.385 114.395 41.5537 113.72 41.891 113.126C42.2357 112.525 42.705 112.059 43.299 111.729C43.9003 111.392 44.5677 111.223 45.301 111.223C46.1663 111.223 46.918 111.436 47.556 111.861C48.194 112.279 48.634 112.869 48.876 113.632H47.105ZM55.8674 115.821C55.8674 116.041 55.8527 116.239 55.8234 116.415H51.3684C51.405 116.855 51.559 117.2 51.8304 117.449C52.1017 117.698 52.4354 117.823 52.8314 117.823C53.4034 117.823 53.8104 117.577 54.0524 117.086H55.7134C55.5374 117.673 55.2 118.157 54.7014 118.538C54.2027 118.912 53.5904 119.099 52.8644 119.099C52.2777 119.099 51.7497 118.971 51.2804 118.714C50.8184 118.45 50.4554 118.08 50.1914 117.603C49.9347 117.126 49.8064 116.576 49.8064 115.953C49.8064 115.322 49.9347 114.769 50.1914 114.292C50.448 113.815 50.8074 113.449 51.2694 113.192C51.7314 112.935 52.263 112.807 52.8644 112.807C53.4437 112.807 53.9607 112.932 54.4154 113.181C54.8774 113.43 55.233 113.786 55.4824 114.248C55.739 114.703 55.8674 115.227 55.8674 115.821ZM54.2724 115.381C54.265 114.985 54.122 114.67 53.8434 114.435C53.5647 114.193 53.2237 114.072 52.8204 114.072C52.439 114.072 52.1164 114.189 51.8524 114.424C51.5957 114.651 51.438 114.97 51.3794 115.381H54.2724ZM58.7844 114.171V117.119C58.7844 117.324 58.8321 117.475 58.9274 117.57C59.0301 117.658 59.1988 117.702 59.4334 117.702H60.1484V119H59.1804C57.8824 119 57.2334 118.369 57.2334 117.108V114.171H56.5074V112.906H57.2334V111.399H58.7844V112.906H60.1484V114.171H58.7844ZM63.4812 115.931C63.4812 115.315 63.6022 114.769 63.8442 114.292C64.0935 113.815 64.4272 113.449 64.8452 113.192C65.2705 112.935 65.7435 112.807 66.2642 112.807C66.7188 112.807 67.1148 112.899 67.4522 113.082C67.7968 113.265 68.0718 113.496 68.2772 113.775V112.906H69.8282V119H68.2772V118.109C68.0792 118.395 67.8042 118.633 67.4522 118.824C67.1075 119.007 66.7078 119.099 66.2532 119.099C65.7398 119.099 65.2705 118.967 64.8452 118.703C64.4272 118.439 64.0935 118.069 63.8442 117.592C63.6022 117.108 63.4812 116.554 63.4812 115.931ZM68.2772 115.953C68.2772 115.579 68.2038 115.26 68.0572 114.996C67.9105 114.725 67.7125 114.519 67.4632 114.38C67.2138 114.233 66.9462 114.16 66.6602 114.16C66.3742 114.16 66.1102 114.23 65.8682 114.369C65.6262 114.508 65.4282 114.714 65.2742 114.985C65.1275 115.249 65.0542 115.564 65.0542 115.931C65.0542 116.298 65.1275 116.62 65.2742 116.899C65.4282 117.17 65.6262 117.379 65.8682 117.526C66.1175 117.673 66.3815 117.746 66.6602 117.746C66.9462 117.746 67.2138 117.676 67.4632 117.537C67.7125 117.39 67.9105 117.185 68.0572 116.921C68.2038 116.65 68.2772 116.327 68.2772 115.953ZM73.5573 115.931C73.5573 115.315 73.6783 114.769 73.9203 114.292C74.1697 113.815 74.507 113.449 74.9323 113.192C75.3577 112.935 75.8307 112.807 76.3513 112.807C76.7473 112.807 77.125 112.895 77.4843 113.071C77.8437 113.24 78.1297 113.467 78.3423 113.753V110.86H79.9043V119H78.3423V118.098C78.1517 118.399 77.884 118.641 77.5393 118.824C77.1947 119.007 76.795 119.099 76.3403 119.099C75.827 119.099 75.3577 118.967 74.9323 118.703C74.507 118.439 74.1697 118.069 73.9203 117.592C73.6783 117.108 73.5573 116.554 73.5573 115.931ZM78.3533 115.953C78.3533 115.579 78.28 115.26 78.1333 114.996C77.9867 114.725 77.7887 114.519 77.5393 114.38C77.29 114.233 77.0223 114.16 76.7363 114.16C76.4503 114.16 76.1863 114.23 75.9443 114.369C75.7023 114.508 75.5043 114.714 75.3503 114.985C75.2037 115.249 75.1303 115.564 75.1303 115.931C75.1303 116.298 75.2037 116.62 75.3503 116.899C75.5043 117.17 75.7023 117.379 75.9443 117.526C76.1937 117.673 76.4577 117.746 76.7363 117.746C77.0223 117.746 77.29 117.676 77.5393 117.537C77.7887 117.39 77.9867 117.185 78.1333 116.921C78.28 116.65 78.3533 116.327 78.3533 115.953ZM82.1894 112.18C81.9181 112.18 81.6907 112.096 81.5074 111.927C81.3314 111.751 81.2434 111.535 81.2434 111.278C81.2434 111.021 81.3314 110.809 81.5074 110.64C81.6907 110.464 81.9181 110.376 82.1894 110.376C82.4607 110.376 82.6844 110.464 82.8604 110.64C83.0437 110.809 83.1354 111.021 83.1354 111.278C83.1354 111.535 83.0437 111.751 82.8604 111.927C82.6844 112.096 82.4607 112.18 82.1894 112.18ZM82.9484 112.906V119H81.4084V112.906H82.9484ZM86.8019 119.099C86.3033 119.099 85.8559 119.011 85.4599 118.835C85.0639 118.652 84.7486 118.406 84.5139 118.098C84.2866 117.79 84.1619 117.449 84.1399 117.075H85.6909C85.7203 117.31 85.8339 117.504 86.0319 117.658C86.2373 117.812 86.4903 117.889 86.7909 117.889C87.0843 117.889 87.3116 117.83 87.4729 117.713C87.6416 117.596 87.7259 117.445 87.7259 117.262C87.7259 117.064 87.6233 116.917 87.4179 116.822C87.2199 116.719 86.9009 116.609 86.4609 116.492C86.0063 116.382 85.6323 116.268 85.3389 116.151C85.0529 116.034 84.8036 115.854 84.5909 115.612C84.3856 115.37 84.2829 115.044 84.2829 114.633C84.2829 114.296 84.3783 113.988 84.5689 113.709C84.7669 113.43 85.0456 113.21 85.4049 113.049C85.7716 112.888 86.2006 112.807 86.6919 112.807C87.4179 112.807 87.9973 112.99 88.4299 113.357C88.8626 113.716 89.1009 114.204 89.1449 114.82H87.6709C87.6489 114.578 87.5463 114.387 87.3629 114.248C87.1869 114.101 86.9486 114.028 86.6479 114.028C86.3693 114.028 86.1529 114.079 85.9989 114.182C85.8523 114.285 85.7789 114.428 85.7789 114.611C85.7789 114.816 85.8816 114.974 86.0869 115.084C86.2923 115.187 86.6113 115.293 87.0439 115.403C87.4839 115.513 87.8469 115.627 88.1329 115.744C88.4189 115.861 88.6646 116.045 88.8699 116.294C89.0826 116.536 89.1926 116.859 89.1999 117.262C89.1999 117.614 89.1009 117.929 88.9029 118.208C88.7123 118.487 88.4336 118.707 88.0669 118.868C87.7076 119.022 87.2859 119.099 86.8019 119.099ZM90.0681 115.953C90.0681 115.322 90.1964 114.772 90.4531 114.303C90.7097 113.826 91.0654 113.46 91.5201 113.203C91.9747 112.939 92.4954 112.807 93.0821 112.807C93.8374 112.807 94.4607 112.998 94.9521 113.379C95.4507 113.753 95.7844 114.281 95.9531 114.963H94.2921C94.2041 114.699 94.0537 114.494 93.8411 114.347C93.6357 114.193 93.3791 114.116 93.0711 114.116C92.6311 114.116 92.2827 114.277 92.0261 114.6C91.7694 114.915 91.6411 115.366 91.6411 115.953C91.6411 116.532 91.7694 116.983 92.0261 117.306C92.2827 117.621 92.6311 117.779 93.0711 117.779C93.6944 117.779 94.1014 117.5 94.2921 116.943H95.9531C95.7844 117.603 95.4507 118.127 94.9521 118.516C94.4534 118.905 93.8301 119.099 93.0821 119.099C92.4954 119.099 91.9747 118.971 91.5201 118.714C91.0654 118.45 90.7097 118.083 90.4531 117.614C90.1964 117.137 90.0681 116.584 90.0681 115.953ZM99.7873 119.099C99.2006 119.099 98.6726 118.971 98.2033 118.714C97.7339 118.45 97.3636 118.08 97.0923 117.603C96.8283 117.126 96.6963 116.576 96.6963 115.953C96.6963 115.33 96.8319 114.78 97.1033 114.303C97.3819 113.826 97.7596 113.46 98.2363 113.203C98.7129 112.939 99.2446 112.807 99.8313 112.807C100.418 112.807 100.95 112.939 101.426 113.203C101.903 113.46 102.277 113.826 102.548 114.303C102.827 114.78 102.966 115.33 102.966 115.953C102.966 116.576 102.823 117.126 102.537 117.603C102.259 118.08 101.877 118.45 101.393 118.714C100.917 118.971 100.381 119.099 99.7873 119.099ZM99.7873 117.757C100.066 117.757 100.326 117.691 100.568 117.559C100.818 117.42 101.016 117.214 101.162 116.943C101.309 116.672 101.382 116.342 101.382 115.953C101.382 115.374 101.228 114.93 100.92 114.622C100.62 114.307 100.249 114.149 99.8093 114.149C99.3693 114.149 98.9989 114.307 98.6983 114.622C98.4049 114.93 98.2583 115.374 98.2583 115.953C98.2583 116.532 98.4013 116.98 98.6873 117.295C98.9806 117.603 99.3473 117.757 99.7873 117.757ZM109.849 112.906V119H108.298V118.23C108.1 118.494 107.84 118.703 107.517 118.857C107.202 119.004 106.857 119.077 106.483 119.077C106.006 119.077 105.585 118.978 105.218 118.78C104.851 118.575 104.562 118.278 104.349 117.889C104.144 117.493 104.041 117.024 104.041 116.481V112.906H105.581V116.261C105.581 116.745 105.702 117.119 105.944 117.383C106.186 117.64 106.516 117.768 106.934 117.768C107.359 117.768 107.693 117.64 107.935 117.383C108.177 117.119 108.298 116.745 108.298 116.261V112.906H109.849ZM114.745 112.818C115.471 112.818 116.058 113.049 116.505 113.511C116.953 113.966 117.176 114.604 117.176 115.425V119H115.636V115.634C115.636 115.15 115.515 114.78 115.273 114.523C115.031 114.259 114.701 114.127 114.283 114.127C113.858 114.127 113.521 114.259 113.271 114.523C113.029 114.78 112.908 115.15 112.908 115.634V119H111.368V112.906H112.908V113.665C113.114 113.401 113.374 113.196 113.689 113.049C114.012 112.895 114.364 112.818 114.745 112.818ZM120.434 114.171V117.119C120.434 117.324 120.482 117.475 120.577 117.57C120.68 117.658 120.848 117.702 121.083 117.702H121.798V119H120.83C119.532 119 118.883 118.369 118.883 117.108V114.171H118.157V112.906H118.883V111.399H120.434V112.906H121.798V114.171H120.434ZM128.321 114.171H127.254V119H125.692V114.171H124.999V112.906H125.692V112.598C125.692 111.85 125.904 111.3 126.33 110.948C126.755 110.596 127.397 110.431 128.255 110.453V111.751C127.881 111.744 127.62 111.806 127.474 111.938C127.327 112.07 127.254 112.308 127.254 112.653V112.906H128.321V114.171ZM132.025 119.099C131.438 119.099 130.91 118.971 130.441 118.714C129.971 118.45 129.601 118.08 129.33 117.603C129.066 117.126 128.934 116.576 128.934 115.953C128.934 115.33 129.069 114.78 129.341 114.303C129.619 113.826 129.997 113.46 130.474 113.203C130.95 112.939 131.482 112.807 132.069 112.807C132.655 112.807 133.187 112.939 133.664 113.203C134.14 113.46 134.514 113.826 134.786 114.303C135.064 114.78 135.204 115.33 135.204 115.953C135.204 116.576 135.061 117.126 134.775 117.603C134.496 118.08 134.115 118.45 133.631 118.714C133.154 118.971 132.619 119.099 132.025 119.099ZM132.025 117.757C132.303 117.757 132.564 117.691 132.806 117.559C133.055 117.42 133.253 117.214 133.4 116.943C133.546 116.672 133.62 116.342 133.62 115.953C133.62 115.374 133.466 114.93 133.158 114.622C132.857 114.307 132.487 114.149 132.047 114.149C131.607 114.149 131.236 114.307 130.936 114.622C130.642 114.93 130.496 115.374 130.496 115.953C130.496 116.532 130.639 116.98 130.925 117.295C131.218 117.603 131.585 117.757 132.025 117.757ZM137.873 113.852C138.071 113.529 138.328 113.276 138.643 113.093C138.966 112.91 139.333 112.818 139.743 112.818V114.435H139.336C138.852 114.435 138.486 114.549 138.236 114.776C137.994 115.003 137.873 115.399 137.873 115.964V119H136.333V112.906H137.873V113.852ZM149.067 115.821C149.067 116.041 149.052 116.239 149.023 116.415H144.568C144.604 116.855 144.758 117.2 145.03 117.449C145.301 117.698 145.635 117.823 146.031 117.823C146.603 117.823 147.01 117.577 147.252 117.086H148.913C148.737 117.673 148.399 118.157 147.901 118.538C147.402 118.912 146.79 119.099 146.064 119.099C145.477 119.099 144.949 118.971 144.48 118.714C144.018 118.45 143.655 118.08 143.391 117.603C143.134 117.126 143.006 116.576 143.006 115.953C143.006 115.322 143.134 114.769 143.391 114.292C143.647 113.815 144.007 113.449 144.469 113.192C144.931 112.935 145.462 112.807 146.064 112.807C146.643 112.807 147.16 112.932 147.615 113.181C148.077 113.43 148.432 113.786 148.682 114.248C148.938 114.703 149.067 115.227 149.067 115.821ZM147.472 115.381C147.464 114.985 147.321 114.67 147.043 114.435C146.764 114.193 146.423 114.072 146.02 114.072C145.638 114.072 145.316 114.189 145.052 114.424C144.795 114.651 144.637 114.97 144.579 115.381H147.472ZM152.732 117.581L154.272 112.906H155.911L153.656 119H151.786L149.542 112.906H151.192L152.732 117.581ZM162.441 115.821C162.441 116.041 162.426 116.239 162.397 116.415H157.942C157.978 116.855 158.132 117.2 158.404 117.449C158.675 117.698 159.009 117.823 159.405 117.823C159.977 117.823 160.384 117.577 160.626 117.086H162.287C162.111 117.673 161.773 118.157 161.275 118.538C160.776 118.912 160.164 119.099 159.438 119.099C158.851 119.099 158.323 118.971 157.854 118.714C157.392 118.45 157.029 118.08 156.765 117.603C156.508 117.126 156.38 116.576 156.38 115.953C156.38 115.322 156.508 114.769 156.765 114.292C157.021 113.815 157.381 113.449 157.843 113.192C158.305 112.935 158.836 112.807 159.438 112.807C160.017 112.807 160.534 112.932 160.989 113.181C161.451 113.43 161.806 113.786 162.056 114.248C162.312 114.703 162.441 115.227 162.441 115.821ZM160.846 115.381C160.838 114.985 160.695 114.67 160.417 114.435C160.138 114.193 159.797 114.072 159.394 114.072C159.012 114.072 158.69 114.189 158.426 114.424C158.169 114.651 158.011 114.97 157.953 115.381H160.846ZM165.105 113.852C165.303 113.529 165.559 113.276 165.875 113.093C166.197 112.91 166.564 112.818 166.975 112.818V114.435H166.568C166.084 114.435 165.717 114.549 165.468 114.776C165.226 115.003 165.105 115.399 165.105 115.964V119H163.565V112.906H165.105V113.852ZM173.842 112.906L170.069 121.882H168.43L169.75 118.846L167.308 112.906H169.035L170.608 117.163L172.203 112.906H173.842ZM179.999 119.099C179.413 119.099 178.885 118.971 178.415 118.714C177.946 118.45 177.576 118.08 177.304 117.603C177.04 117.126 176.908 116.576 176.908 115.953C176.908 115.33 177.044 114.78 177.315 114.303C177.594 113.826 177.972 113.46 178.448 113.203C178.925 112.939 179.457 112.807 180.043 112.807C180.63 112.807 181.162 112.939 181.638 113.203C182.115 113.46 182.489 113.826 182.76 114.303C183.039 114.78 183.178 115.33 183.178 115.953C183.178 116.576 183.035 117.126 182.749 117.603C182.471 118.08 182.089 118.45 181.605 118.714C181.129 118.971 180.593 119.099 179.999 119.099ZM179.999 117.757C180.278 117.757 180.538 117.691 180.78 117.559C181.03 117.42 181.228 117.214 181.374 116.943C181.521 116.672 181.594 116.342 181.594 115.953C181.594 115.374 181.44 114.93 181.132 114.622C180.832 114.307 180.461 114.149 180.021 114.149C179.581 114.149 179.211 114.307 178.91 114.622C178.617 114.93 178.47 115.374 178.47 115.953C178.47 116.532 178.613 116.98 178.899 117.295C179.193 117.603 179.559 117.757 179.999 117.757ZM185.848 113.852C186.046 113.529 186.302 113.276 186.618 113.093C186.94 112.91 187.307 112.818 187.718 112.818V114.435H187.311C186.827 114.435 186.46 114.549 186.211 114.776C185.969 115.003 185.848 115.399 185.848 115.964V119H184.308V112.906H185.848V113.852ZM188.359 115.931C188.359 115.315 188.48 114.769 188.722 114.292C188.971 113.815 189.309 113.449 189.734 113.192C190.159 112.935 190.632 112.807 191.153 112.807C191.549 112.807 191.927 112.895 192.286 113.071C192.645 113.24 192.931 113.467 193.144 113.753V110.86H194.706V119H193.144V118.098C192.953 118.399 192.686 118.641 192.341 118.824C191.996 119.007 191.597 119.099 191.142 119.099C190.629 119.099 190.159 118.967 189.734 118.703C189.309 118.439 188.971 118.069 188.722 117.592C188.48 117.108 188.359 116.554 188.359 115.931ZM193.155 115.953C193.155 115.579 193.082 115.26 192.935 114.996C192.788 114.725 192.59 114.519 192.341 114.38C192.092 114.233 191.824 114.16 191.538 114.16C191.252 114.16 190.988 114.23 190.746 114.369C190.504 114.508 190.306 114.714 190.152 114.985C190.005 115.249 189.932 115.564 189.932 115.931C189.932 116.298 190.005 116.62 190.152 116.899C190.306 117.17 190.504 117.379 190.746 117.526C190.995 117.673 191.259 117.746 191.538 117.746C191.824 117.746 192.092 117.676 192.341 117.537C192.59 117.39 192.788 117.185 192.935 116.921C193.082 116.65 193.155 116.327 193.155 115.953ZM201.875 115.821C201.875 116.041 201.861 116.239 201.831 116.415H197.376C197.413 116.855 197.567 117.2 197.838 117.449C198.11 117.698 198.443 117.823 198.839 117.823C199.411 117.823 199.818 117.577 200.06 117.086H201.721C201.545 117.673 201.208 118.157 200.709 118.538C200.211 118.912 199.598 119.099 198.872 119.099C198.286 119.099 197.758 118.971 197.288 118.714C196.826 118.45 196.463 118.08 196.199 117.603C195.943 117.126 195.814 116.576 195.814 115.953C195.814 115.322 195.943 114.769 196.199 114.292C196.456 113.815 196.815 113.449 197.277 113.192C197.739 112.935 198.271 112.807 198.872 112.807C199.452 112.807 199.969 112.932 200.423 113.181C200.885 113.43 201.241 113.786 201.49 114.248C201.747 114.703 201.875 115.227 201.875 115.821ZM200.28 115.381C200.273 114.985 200.13 114.67 199.851 114.435C199.573 114.193 199.232 114.072 198.828 114.072C198.447 114.072 198.124 114.189 197.86 114.424C197.604 114.651 197.446 114.97 197.387 115.381H200.28ZM204.539 113.852C204.737 113.529 204.994 113.276 205.309 113.093C205.632 112.91 205.999 112.818 206.409 112.818V114.435H206.002C205.518 114.435 205.152 114.549 204.902 114.776C204.66 115.003 204.539 115.399 204.539 115.964V119H202.999V112.906H204.539V113.852ZM215.898 112.906L212.125 121.882H210.486L211.806 118.846L209.364 112.906H211.091L212.664 117.163L214.259 112.906H215.898ZM219.434 119.099C218.847 119.099 218.319 118.971 217.85 118.714C217.38 118.45 217.01 118.08 216.739 117.603C216.475 117.126 216.343 116.576 216.343 115.953C216.343 115.33 216.478 114.78 216.75 114.303C217.028 113.826 217.406 113.46 217.883 113.203C218.359 112.939 218.891 112.807 219.478 112.807C220.064 112.807 220.596 112.939 221.073 113.203C221.549 113.46 221.923 113.826 222.195 114.303C222.473 114.78 222.613 115.33 222.613 115.953C222.613 116.576 222.47 117.126 222.184 117.603C221.905 118.08 221.524 118.45 221.04 118.714C220.563 118.971 220.028 119.099 219.434 119.099ZM219.434 117.757C219.712 117.757 219.973 117.691 220.215 117.559C220.464 117.42 220.662 117.214 220.809 116.943C220.955 116.672 221.029 116.342 221.029 115.953C221.029 115.374 220.875 114.93 220.567 114.622C220.266 114.307 219.896 114.149 219.456 114.149C219.016 114.149 218.645 114.307 218.345 114.622C218.051 114.93 217.905 115.374 217.905 115.953C217.905 116.532 218.048 116.98 218.334 117.295C218.627 117.603 218.994 117.757 219.434 117.757ZM229.495 112.906V119H227.944V118.23C227.746 118.494 227.486 118.703 227.163 118.857C226.848 119.004 226.503 119.077 226.129 119.077C225.653 119.077 225.231 118.978 224.864 118.78C224.498 118.575 224.208 118.278 223.995 117.889C223.79 117.493 223.687 117.024 223.687 116.481V112.906H225.227V116.261C225.227 116.745 225.348 117.119 225.59 117.383C225.832 117.64 226.162 117.768 226.58 117.768C227.006 117.768 227.339 117.64 227.581 117.383C227.823 117.119 227.944 116.745 227.944 116.261V112.906H229.495ZM241.204 112.818C241.952 112.818 242.553 113.049 243.008 113.511C243.47 113.966 243.701 114.604 243.701 115.425V119H242.161V115.634C242.161 115.157 242.04 114.794 241.798 114.545C241.556 114.288 241.226 114.16 240.808 114.16C240.39 114.16 240.056 114.288 239.807 114.545C239.565 114.794 239.444 115.157 239.444 115.634V119H237.904V115.634C237.904 115.157 237.783 114.794 237.541 114.545C237.299 114.288 236.969 114.16 236.551 114.16C236.126 114.16 235.788 114.288 235.539 114.545C235.297 114.794 235.176 115.157 235.176 115.634V119H233.636V112.906H235.176V113.643C235.374 113.386 235.627 113.185 235.935 113.038C236.25 112.891 236.595 112.818 236.969 112.818C237.446 112.818 237.871 112.921 238.245 113.126C238.619 113.324 238.909 113.61 239.114 113.984C239.312 113.632 239.598 113.35 239.972 113.137C240.353 112.924 240.764 112.818 241.204 112.818ZM244.766 115.931C244.766 115.315 244.887 114.769 245.129 114.292C245.379 113.815 245.712 113.449 246.13 113.192C246.556 112.935 247.029 112.807 247.549 112.807C248.004 112.807 248.4 112.899 248.737 113.082C249.082 113.265 249.357 113.496 249.562 113.775V112.906H251.113V119H249.562V118.109C249.364 118.395 249.089 118.633 248.737 118.824C248.393 119.007 247.993 119.099 247.538 119.099C247.025 119.099 246.556 118.967 246.13 118.703C245.712 118.439 245.379 118.069 245.129 117.592C244.887 117.108 244.766 116.554 244.766 115.931ZM249.562 115.953C249.562 115.579 249.489 115.26 249.342 114.996C249.196 114.725 248.998 114.519 248.748 114.38C248.499 114.233 248.231 114.16 247.945 114.16C247.659 114.16 247.395 114.23 247.153 114.369C246.911 114.508 246.713 114.714 246.559 114.985C246.413 115.249 246.339 115.564 246.339 115.931C246.339 116.298 246.413 116.62 246.559 116.899C246.713 117.17 246.911 117.379 247.153 117.526C247.403 117.673 247.667 117.746 247.945 117.746C248.231 117.746 248.499 117.676 248.748 117.537C248.998 117.39 249.196 117.185 249.342 116.921C249.489 116.65 249.562 116.327 249.562 115.953ZM256.225 119L254.157 116.404V119H252.617V110.86H254.157V115.491L256.203 112.906H258.205L255.521 115.964L258.227 119H256.225ZM264.706 115.821C264.706 116.041 264.692 116.239 264.662 116.415H260.207C260.244 116.855 260.398 117.2 260.669 117.449C260.941 117.698 261.274 117.823 261.67 117.823C262.242 117.823 262.649 117.577 262.891 117.086H264.552C264.376 117.673 264.039 118.157 263.54 118.538C263.042 118.912 262.429 119.099 261.703 119.099C261.117 119.099 260.589 118.971 260.119 118.714C259.657 118.45 259.294 118.08 259.03 117.603C258.774 117.126 258.645 116.576 258.645 115.953C258.645 115.322 258.774 114.769 259.03 114.292C259.287 113.815 259.646 113.449 260.108 113.192C260.57 112.935 261.102 112.807 261.703 112.807C262.283 112.807 262.8 112.932 263.254 113.181C263.716 113.43 264.072 113.786 264.321 114.248C264.578 114.703 264.706 115.227 264.706 115.821ZM263.111 115.381C263.104 114.985 262.961 114.67 262.682 114.435C262.404 114.193 262.063 114.072 261.659 114.072C261.278 114.072 260.955 114.189 260.691 114.424C260.435 114.651 260.277 114.97 260.218 115.381H263.111Z" fill="white"/>
<path d="M45.323 140.077C44.6043 140.077 43.9443 139.908 43.343 139.571C42.7417 139.234 42.265 138.768 41.913 138.174C41.561 137.573 41.385 136.894 41.385 136.139C41.385 135.391 41.561 134.72 41.913 134.126C42.265 133.525 42.7417 133.055 43.343 132.718C43.9443 132.381 44.6043 132.212 45.323 132.212C46.049 132.212 46.709 132.381 47.303 132.718C47.9043 133.055 48.3773 133.525 48.722 134.126C49.074 134.72 49.25 135.391 49.25 136.139C49.25 136.894 49.074 137.573 48.722 138.174C48.3773 138.768 47.9043 139.234 47.303 139.571C46.7017 139.908 46.0417 140.077 45.323 140.077ZM45.323 138.702C45.785 138.702 46.192 138.599 46.544 138.394C46.896 138.181 47.171 137.881 47.369 137.492C47.567 137.103 47.666 136.652 47.666 136.139C47.666 135.626 47.567 135.178 47.369 134.797C47.171 134.408 46.896 134.111 46.544 133.906C46.192 133.701 45.785 133.598 45.323 133.598C44.861 133.598 44.4503 133.701 44.091 133.906C43.739 134.111 43.464 134.408 43.266 134.797C43.068 135.178 42.969 135.626 42.969 136.139C42.969 136.652 43.068 137.103 43.266 137.492C43.464 137.881 43.739 138.181 44.091 138.394C44.4503 138.599 44.861 138.702 45.323 138.702ZM53.1897 135.171H52.1227V140H50.5607V135.171H49.8677V133.906H50.5607V133.598C50.5607 132.85 50.7734 132.3 51.1987 131.948C51.6241 131.596 52.2657 131.431 53.1237 131.453V132.751C52.7497 132.744 52.4894 132.806 52.3427 132.938C52.1961 133.07 52.1227 133.308 52.1227 133.653V133.906H53.1897V135.171ZM56.9817 135.171H55.9147V140H54.3527V135.171H53.6597V133.906H54.3527V133.598C54.3527 132.85 54.5654 132.3 54.9907 131.948C55.416 131.596 56.0577 131.431 56.9157 131.453V132.751C56.5417 132.744 56.2814 132.806 56.1347 132.938C55.988 133.07 55.9147 133.308 55.9147 133.653V133.906H56.9817V135.171ZM63.6447 136.821C63.6447 137.041 63.63 137.239 63.6007 137.415H59.1457C59.1824 137.855 59.3364 138.2 59.6077 138.449C59.879 138.698 60.2127 138.823 60.6087 138.823C61.1807 138.823 61.5877 138.577 61.8297 138.086H63.4907C63.3147 138.673 62.9774 139.157 62.4787 139.538C61.98 139.912 61.3677 140.099 60.6417 140.099C60.055 140.099 59.527 139.971 59.0577 139.714C58.5957 139.45 58.2327 139.08 57.9687 138.603C57.712 138.126 57.5837 137.576 57.5837 136.953C57.5837 136.322 57.712 135.769 57.9687 135.292C58.2254 134.815 58.5847 134.449 59.0467 134.192C59.5087 133.935 60.0404 133.807 60.6417 133.807C61.221 133.807 61.738 133.932 62.1927 134.181C62.6547 134.43 63.0104 134.786 63.2597 135.248C63.5164 135.703 63.6447 136.227 63.6447 136.821ZM62.0497 136.381C62.0424 135.985 61.8994 135.67 61.6207 135.435C61.342 135.193 61.001 135.072 60.5977 135.072C60.2164 135.072 59.8937 135.189 59.6297 135.424C59.373 135.651 59.2154 135.97 59.1567 136.381H62.0497ZM66.3088 134.852C66.5068 134.529 66.7634 134.276 67.0788 134.093C67.4014 133.91 67.7681 133.818 68.1788 133.818V135.435H67.7718C67.2878 135.435 66.9211 135.549 66.6718 135.776C66.4298 136.003 66.3088 136.399 66.3088 136.964V140H64.7688V133.906H66.3088V134.852ZM74.5431 140.099C73.9565 140.099 73.4285 139.971 72.9591 139.714C72.4898 139.45 72.1195 139.08 71.8481 138.603C71.5841 138.126 71.4521 137.576 71.4521 136.953C71.4521 136.33 71.5878 135.78 71.8591 135.303C72.1378 134.826 72.5155 134.46 72.9921 134.203C73.4688 133.939 74.0005 133.807 74.5871 133.807C75.1738 133.807 75.7055 133.939 76.1821 134.203C76.6588 134.46 77.0328 134.826 77.3041 135.303C77.5828 135.78 77.7221 136.33 77.7221 136.953C77.7221 137.576 77.5791 138.126 77.2931 138.603C77.0145 139.08 76.6331 139.45 76.1491 139.714C75.6725 139.971 75.1371 140.099 74.5431 140.099ZM74.5431 138.757C74.8218 138.757 75.0821 138.691 75.3241 138.559C75.5735 138.42 75.7715 138.214 75.9181 137.943C76.0648 137.672 76.1381 137.342 76.1381 136.953C76.1381 136.374 75.9841 135.93 75.6761 135.622C75.3755 135.307 75.0051 135.149 74.5651 135.149C74.1251 135.149 73.7548 135.307 73.4541 135.622C73.1608 135.93 73.0141 136.374 73.0141 136.953C73.0141 137.532 73.1571 137.98 73.4431 138.295C73.7365 138.603 74.1031 138.757 74.5431 138.757ZM82.2288 133.818C82.9548 133.818 83.5414 134.049 83.9888 134.511C84.4361 134.966 84.6598 135.604 84.6598 136.425V140H83.1198V136.634C83.1198 136.15 82.9988 135.78 82.7568 135.523C82.5148 135.259 82.1848 135.127 81.7668 135.127C81.3414 135.127 81.0041 135.259 80.7548 135.523C80.5128 135.78 80.3918 136.15 80.3918 136.634V140H78.8518V133.906H80.3918V134.665C80.5971 134.401 80.8574 134.196 81.1728 134.049C81.4954 133.895 81.8474 133.818 82.2288 133.818ZM87.6642 131.86V140H86.1242V131.86H87.6642ZM95.0158 133.906L91.2428 142.882H89.6038L90.9238 139.846L88.4818 133.906H90.2088L91.7818 138.163L93.3768 133.906H95.0158ZM101.008 138.581L102.548 133.906H104.187L101.932 140H100.062L97.818 133.906H99.468L101.008 138.581ZM104.656 136.931C104.656 136.315 104.777 135.769 105.019 135.292C105.268 134.815 105.602 134.449 106.02 134.192C106.445 133.935 106.918 133.807 107.439 133.807C107.894 133.807 108.29 133.899 108.627 134.082C108.972 134.265 109.247 134.496 109.452 134.775V133.906H111.003V140H109.452V139.109C109.254 139.395 108.979 139.633 108.627 139.824C108.282 140.007 107.883 140.099 107.428 140.099C106.915 140.099 106.445 139.967 106.02 139.703C105.602 139.439 105.268 139.069 105.019 138.592C104.777 138.108 104.656 137.554 104.656 136.931ZM109.452 136.953C109.452 136.579 109.379 136.26 109.232 135.996C109.085 135.725 108.887 135.519 108.638 135.38C108.389 135.233 108.121 135.16 107.835 135.16C107.549 135.16 107.285 135.23 107.043 135.369C106.801 135.508 106.603 135.714 106.449 135.985C106.302 136.249 106.229 136.564 106.229 136.931C106.229 137.298 106.302 137.62 106.449 137.899C106.603 138.17 106.801 138.379 107.043 138.526C107.292 138.673 107.556 138.746 107.835 138.746C108.121 138.746 108.389 138.676 108.638 138.537C108.887 138.39 109.085 138.185 109.232 137.921C109.379 137.65 109.452 137.327 109.452 136.953ZM114.047 131.86V140H112.507V131.86H114.047ZM116.35 133.18C116.078 133.18 115.851 133.096 115.668 132.927C115.492 132.751 115.404 132.535 115.404 132.278C115.404 132.021 115.492 131.809 115.668 131.64C115.851 131.464 116.078 131.376 116.35 131.376C116.621 131.376 116.845 131.464 117.021 131.64C117.204 131.809 117.296 132.021 117.296 132.278C117.296 132.535 117.204 132.751 117.021 132.927C116.845 133.096 116.621 133.18 116.35 133.18ZM117.109 133.906V140H115.569V133.906H117.109ZM118.234 136.931C118.234 136.315 118.355 135.769 118.597 135.292C118.846 134.815 119.184 134.449 119.609 134.192C120.034 133.935 120.507 133.807 121.028 133.807C121.424 133.807 121.802 133.895 122.161 134.071C122.52 134.24 122.806 134.467 123.019 134.753V131.86H124.581V140H123.019V139.098C122.828 139.399 122.561 139.641 122.216 139.824C121.871 140.007 121.472 140.099 121.017 140.099C120.504 140.099 120.034 139.967 119.609 139.703C119.184 139.439 118.846 139.069 118.597 138.592C118.355 138.108 118.234 137.554 118.234 136.931ZM123.03 136.953C123.03 136.579 122.957 136.26 122.81 135.996C122.663 135.725 122.465 135.519 122.216 135.38C121.967 135.233 121.699 135.16 121.413 135.16C121.127 135.16 120.863 135.23 120.621 135.369C120.379 135.508 120.181 135.714 120.027 135.985C119.88 136.249 119.807 136.564 119.807 136.931C119.807 137.298 119.88 137.62 120.027 137.899C120.181 138.17 120.379 138.379 120.621 138.526C120.87 138.673 121.134 138.746 121.413 138.746C121.699 138.746 121.967 138.676 122.216 138.537C122.465 138.39 122.663 138.185 122.81 137.921C122.957 137.65 123.03 137.327 123.03 136.953ZM131.5 135.171H130.433V140H128.871V135.171H128.178V133.906H128.871V133.598C128.871 132.85 129.084 132.3 129.509 131.948C129.935 131.596 130.576 131.431 131.434 131.453V132.751C131.06 132.744 130.8 132.806 130.653 132.938C130.507 133.07 130.433 133.308 130.433 133.653V133.906H131.5V135.171ZM135.204 140.099C134.618 140.099 134.09 139.971 133.62 139.714C133.151 139.45 132.781 139.08 132.509 138.603C132.245 138.126 132.113 137.576 132.113 136.953C132.113 136.33 132.249 135.78 132.52 135.303C132.799 134.826 133.177 134.46 133.653 134.203C134.13 133.939 134.662 133.807 135.248 133.807C135.835 133.807 136.367 133.939 136.843 134.203C137.32 134.46 137.694 134.826 137.965 135.303C138.244 135.78 138.383 136.33 138.383 136.953C138.383 137.576 138.24 138.126 137.954 138.603C137.676 139.08 137.294 139.45 136.81 139.714C136.334 139.971 135.798 140.099 135.204 140.099ZM135.204 138.757C135.483 138.757 135.743 138.691 135.985 138.559C136.235 138.42 136.433 138.214 136.579 137.943C136.726 137.672 136.799 137.342 136.799 136.953C136.799 136.374 136.645 135.93 136.337 135.622C136.037 135.307 135.666 135.149 135.226 135.149C134.786 135.149 134.416 135.307 134.115 135.622C133.822 135.93 133.675 136.374 133.675 136.953C133.675 137.532 133.818 137.98 134.104 138.295C134.398 138.603 134.764 138.757 135.204 138.757ZM141.053 134.852C141.251 134.529 141.508 134.276 141.823 134.093C142.146 133.91 142.512 133.818 142.923 133.818V135.435H142.516C142.032 135.435 141.665 135.549 141.416 135.776C141.174 136.003 141.053 136.399 141.053 136.964V140H139.513V133.906H141.053V134.852ZM148.374 135.171V138.119C148.374 138.324 148.422 138.475 148.517 138.57C148.62 138.658 148.789 138.702 149.023 138.702H149.738V140H148.77C147.472 140 146.823 139.369 146.823 138.108V135.171H146.097V133.906H146.823V132.399H148.374V133.906H149.738V135.171H148.374ZM153.552 140.099C152.965 140.099 152.437 139.971 151.968 139.714C151.499 139.45 151.128 139.08 150.857 138.603C150.593 138.126 150.461 137.576 150.461 136.953C150.461 136.33 150.597 135.78 150.868 135.303C151.147 134.826 151.524 134.46 152.001 134.203C152.478 133.939 153.009 133.807 153.596 133.807C154.183 133.807 154.714 133.939 155.191 134.203C155.668 134.46 156.042 134.826 156.313 135.303C156.592 135.78 156.731 136.33 156.731 136.953C156.731 137.576 156.588 138.126 156.302 138.603C156.023 139.08 155.642 139.45 155.158 139.714C154.681 139.971 154.146 140.099 153.552 140.099ZM153.552 138.757C153.831 138.757 154.091 138.691 154.333 138.559C154.582 138.42 154.78 138.214 154.927 137.943C155.074 137.672 155.147 137.342 155.147 136.953C155.147 136.374 154.993 135.93 154.685 135.622C154.384 135.307 154.014 135.149 153.574 135.149C153.134 135.149 152.764 135.307 152.463 135.622C152.17 135.93 152.023 136.374 152.023 136.953C152.023 137.532 152.166 137.98 152.452 138.295C152.745 138.603 153.112 138.757 153.552 138.757ZM157.465 136.931C157.465 136.315 157.586 135.769 157.828 135.292C158.077 134.815 158.414 134.449 158.84 134.192C159.265 133.935 159.738 133.807 160.259 133.807C160.655 133.807 161.032 133.895 161.392 134.071C161.751 134.24 162.037 134.467 162.25 134.753V131.86H163.812V140H162.25V139.098C162.059 139.399 161.791 139.641 161.447 139.824C161.102 140.007 160.702 140.099 160.248 140.099C159.734 140.099 159.265 139.967 158.84 139.703C158.414 139.439 158.077 139.069 157.828 138.592C157.586 138.108 157.465 137.554 157.465 136.931ZM162.261 136.953C162.261 136.579 162.187 136.26 162.041 135.996C161.894 135.725 161.696 135.519 161.447 135.38C161.197 135.233 160.93 135.16 160.644 135.16C160.358 135.16 160.094 135.23 159.852 135.369C159.61 135.508 159.412 135.714 159.258 135.985C159.111 136.249 159.038 136.564 159.038 136.931C159.038 137.298 159.111 137.62 159.258 137.899C159.412 138.17 159.61 138.379 159.852 138.526C160.101 138.673 160.365 138.746 160.644 138.746C160.93 138.746 161.197 138.676 161.447 138.537C161.696 138.39 161.894 138.185 162.041 137.921C162.187 137.65 162.261 137.327 162.261 136.953ZM164.92 136.931C164.92 136.315 165.041 135.769 165.283 135.292C165.532 134.815 165.866 134.449 166.284 134.192C166.709 133.935 167.182 133.807 167.703 133.807C168.157 133.807 168.553 133.899 168.891 134.082C169.235 134.265 169.51 134.496 169.716 134.775V133.906H171.267V140H169.716V139.109C169.518 139.395 169.243 139.633 168.891 139.824C168.546 140.007 168.146 140.099 167.692 140.099C167.178 140.099 166.709 139.967 166.284 139.703C165.866 139.439 165.532 139.069 165.283 138.592C165.041 138.108 164.92 137.554 164.92 136.931ZM169.716 136.953C169.716 136.579 169.642 136.26 169.496 135.996C169.349 135.725 169.151 135.519 168.902 135.38C168.652 135.233 168.385 135.16 168.099 135.16C167.813 135.16 167.549 135.23 167.307 135.369C167.065 135.508 166.867 135.714 166.713 135.985C166.566 136.249 166.493 136.564 166.493 136.931C166.493 137.298 166.566 137.62 166.713 137.899C166.867 138.17 167.065 138.379 167.307 138.526C167.556 138.673 167.82 138.746 168.099 138.746C168.385 138.746 168.652 138.676 168.902 138.537C169.151 138.39 169.349 138.185 169.496 137.921C169.642 137.65 169.716 137.327 169.716 136.953ZM178.601 133.906L174.828 142.882H173.189L174.509 139.846L172.067 133.906H173.794L175.367 138.163L176.962 133.906H178.601ZM181.422 132.19L181.246 137.503H179.948L179.761 132.19H181.422ZM180.63 140.077C180.351 140.077 180.12 139.993 179.937 139.824C179.761 139.648 179.673 139.432 179.673 139.175C179.673 138.918 179.761 138.706 179.937 138.537C180.12 138.361 180.351 138.273 180.63 138.273C180.901 138.273 181.125 138.361 181.301 138.537C181.477 138.706 181.565 138.918 181.565 139.175C181.565 139.432 181.477 139.648 181.301 139.824C181.125 139.993 180.901 140.077 180.63 140.077Z" fill="white"/>
<path d="M286.032 83.408H278.256V87.512C278.592 87.096 279.072 86.76 279.696 86.504C280.32 86.232 280.984 86.096 281.688 86.096C282.968 86.096 284.016 86.376 284.832 86.936C285.648 87.496 286.24 88.216 286.608 89.096C286.976 89.96 287.16 90.888 287.16 91.88C287.16 93.72 286.632 95.2 285.576 96.32C284.536 97.44 283.048 98 281.112 98C279.288 98 277.832 97.544 276.744 96.632C275.656 95.72 275.04 94.528 274.896 93.056H278.16C278.304 93.696 278.624 94.208 279.12 94.592C279.632 94.976 280.28 95.168 281.064 95.168C282.008 95.168 282.72 94.872 283.2 94.28C283.68 93.688 283.92 92.904 283.92 91.928C283.92 90.936 283.672 90.184 283.176 89.672C282.696 89.144 281.984 88.88 281.04 88.88C280.368 88.88 279.808 89.048 279.36 89.384C278.912 89.72 278.592 90.168 278.4 90.728H275.184V80.456H286.032V83.408ZM289.717 89.024C289.717 86.256 290.213 84.088 291.205 82.52C292.213 80.952 293.877 80.168 296.197 80.168C298.517 80.168 300.173 80.952 301.165 82.52C302.173 84.088 302.677 86.256 302.677 89.024C302.677 91.808 302.173 93.992 301.165 95.576C300.173 97.16 298.517 97.952 296.197 97.952C293.877 97.952 292.213 97.16 291.205 95.576C290.213 93.992 289.717 91.808 289.717 89.024ZM299.365 89.024C299.365 87.84 299.285 86.848 299.125 86.048C298.981 85.232 298.677 84.568 298.213 84.056C297.765 83.544 297.093 83.288 296.197 83.288C295.301 83.288 294.621 83.544 294.157 84.056C293.709 84.568 293.405 85.232 293.245 86.048C293.101 86.848 293.029 87.84 293.029 89.024C293.029 90.24 293.101 91.264 293.245 92.096C293.389 92.912 293.693 93.576 294.157 94.088C294.621 94.584 295.301 94.832 296.197 94.832C297.093 94.832 297.773 94.584 298.237 94.088C298.701 93.576 299.005 92.912 299.149 92.096C299.293 91.264 299.365 90.24 299.365 89.024ZM304.849 84.8C304.849 83.584 305.201 82.632 305.905 81.944C306.625 81.256 307.545 80.912 308.665 80.912C309.785 80.912 310.697 81.256 311.401 81.944C312.121 82.632 312.481 83.584 312.481 84.8C312.481 86.032 312.121 86.992 311.401 87.68C310.697 88.368 309.785 88.712 308.665 88.712C307.545 88.712 306.625 88.368 305.905 87.68C305.201 86.992 304.849 86.032 304.849 84.8ZM320.257 81.2L310.825 98H307.561L316.969 81.2H320.257ZM308.641 82.928C307.761 82.928 307.321 83.552 307.321 84.8C307.321 86.064 307.761 86.696 308.641 86.696C309.073 86.696 309.409 86.544 309.649 86.24C309.889 85.92 310.009 85.44 310.009 84.8C310.009 83.552 309.553 82.928 308.641 82.928ZM315.385 94.376C315.385 93.144 315.737 92.192 316.441 91.52C317.161 90.832 318.081 90.488 319.201 90.488C320.321 90.488 321.225 90.832 321.913 91.52C322.617 92.192 322.969 93.144 322.969 94.376C322.969 95.608 322.617 96.568 321.913 97.256C321.225 97.944 320.321 98.288 319.201 98.288C318.065 98.288 317.145 97.944 316.441 97.256C315.737 96.568 315.385 95.608 315.385 94.376ZM319.177 92.504C318.265 92.504 317.809 93.128 317.809 94.376C317.809 95.64 318.265 96.272 319.177 96.272C320.073 96.272 320.521 95.64 320.521 94.376C320.521 93.128 320.073 92.504 319.177 92.504Z" fill="white"/>
</svg>
