<svg width="25" height="25" viewBox="0 0 25 25" fill="none" xmlns="http://www.w3.org/2000/svg">
<path d="M13.0651 6.61099C13.264 6.60897 13.454 6.52803 13.5932 6.38596C13.7324 6.24389 13.8095 6.05233 13.8075 5.85343C13.8055 5.65453 13.7245 5.46457 13.5825 5.32535C13.4404 5.18613 13.2488 5.10905 13.0499 5.11106L11.05 5.13131C10.8511 5.13332 10.6612 5.21426 10.522 5.35633C10.3827 5.4984 10.3057 5.68996 10.3077 5.88886C10.3097 6.08776 10.3906 6.27772 10.5327 6.41694C10.6748 6.55616 10.8663 6.63324 11.0652 6.63123L13.0651 6.61099Z" fill="#009688"/>
<path fill-rule="evenodd" clip-rule="evenodd" d="M16.3119 22.079C16.8847 22.0732 17.4317 21.8306 17.8325 21.4046C18.2333 20.9785 18.455 20.404 18.449 19.8072L18.2921 4.30804C18.286 3.71133 18.0527 3.14137 17.6434 2.72353C17.234 2.3057 16.6823 2.07422 16.1094 2.08002L8.42981 2.15776C7.85698 2.16356 7.31 2.40616 6.90921 2.83219C6.50843 3.25823 6.28666 3.8328 6.2927 4.42951L6.4496 19.9287C6.45564 20.5254 6.68899 21.0954 7.09832 21.5132C7.50765 21.9311 8.05942 22.1625 8.63226 22.1567L16.3119 22.079ZM17.0091 19.8218C17.0111 20.0207 16.9371 20.2122 16.8036 20.3543C16.67 20.4963 16.4876 20.5771 16.2967 20.5791L8.61708 20.6568C8.42613 20.6587 8.24221 20.5816 8.10576 20.4423C7.96932 20.303 7.89154 20.113 7.88952 19.9141L7.73263 4.41493C7.73061 4.21603 7.80454 4.0245 7.93813 3.88249C8.07173 3.74048 8.25405 3.65961 8.445 3.65768L16.1246 3.57994C16.3156 3.57801 16.4995 3.65517 16.6359 3.79445C16.7724 3.93372 16.8501 4.12371 16.8522 4.32261L17.0091 19.8218Z" fill="#009688"/>
</svg>
