<svg width="16" height="16" viewBox="0 0 16 16" fill="none" xmlns="http://www.w3.org/2000/svg">
<path fill-rule="evenodd" clip-rule="evenodd" d="M7.16667 12.1667C7.82328 12.1667 8.47346 12.0373 9.08008 11.7861C9.68671 11.5348 10.2379 11.1665 10.7022 10.7022C11.1665 10.2379 11.5348 9.68671 11.7861 9.08008C12.0373 8.47346 12.1667 7.82328 12.1667 7.16667C12.1667 6.51006 12.0373 5.85988 11.7861 5.25325C11.5348 4.64662 11.1665 4.09543 10.7022 3.63113C10.2379 3.16684 9.68671 2.79854 9.08008 2.54727C8.47346 2.296 7.82328 2.16667 7.16667 2.16667C5.84058 2.16667 4.56881 2.69345 3.63113 3.63113C2.69345 4.56881 2.16667 5.84058 2.16667 7.16667C2.16667 8.49275 2.69345 9.76452 3.63113 10.7022C4.56881 11.6399 5.84058 12.1667 7.16667 12.1667ZM7.16667 13.8333C8.93478 13.8333 10.6305 13.131 11.8807 11.8807C13.131 10.6305 13.8333 8.93478 13.8333 7.16667C13.8333 5.39856 13.131 3.70286 11.8807 2.45262C10.6305 1.20238 8.93478 0.5 7.16667 0.5C5.39856 0.5 3.70286 1.20238 2.45262 2.45262C1.20238 3.70286 0.5 5.39856 0.5 7.16667C0.5 8.93478 1.20238 10.6305 2.45262 11.8807C3.70286 13.131 5.39856 13.8333 7.16667 13.8333Z" fill="#848383"/>
<path fill-rule="evenodd" clip-rule="evenodd" d="M10.7667 10.7417C10.9235 10.586 11.1357 10.499 11.3567 10.4998C11.5777 10.5005 11.7893 10.5891 11.945 10.7458L15.2575 14.0792C15.4089 14.2368 15.4924 14.4475 15.4899 14.666C15.4874 14.8846 15.3991 15.0934 15.2442 15.2475C15.0892 15.4015 14.8799 15.4886 14.6614 15.4899C14.4428 15.4911 14.2325 15.4065 14.0758 15.2542L10.7633 11.9208C10.6075 11.7641 10.5204 11.5519 10.521 11.331C10.5216 11.11 10.61 10.8983 10.7667 10.7425V10.7417Z" fill="#848383"/>
</svg>
