<svg width="18" height="17" viewBox="0 0 18 17" fill="none" xmlns="http://www.w3.org/2000/svg">
<path d="M9 14.1275L4.4625 16.8675C4.32917 16.9333 4.20542 16.96 4.09125 16.9475C3.97792 16.9342 3.8675 16.895 3.76 16.83C3.65167 16.7633 3.57 16.6692 3.515 16.5475C3.46 16.4258 3.455 16.2929 3.5 16.1487L4.7075 11.0112L0.71375 7.54874C0.60125 7.45707 0.527083 7.34749 0.49125 7.21999C0.455417 7.09249 0.463334 6.9704 0.515 6.85374C0.566667 6.73707 0.635417 6.64124 0.72125 6.56624C0.807917 6.49374 0.924584 6.44457 1.07125 6.41874L6.34125 5.95874L8.39625 1.09374C8.45292 0.956237 8.53458 0.85707 8.64125 0.796237C8.74792 0.735403 8.8675 0.704987 9 0.704987C9.1325 0.704987 9.2525 0.735403 9.36 0.796237C9.4675 0.85707 9.54875 0.956237 9.60375 1.09374L11.6588 5.95874L16.9275 6.41874C17.075 6.44374 17.1921 6.49332 17.2787 6.56749C17.3654 6.64082 17.4346 6.73624 17.4862 6.85374C17.5371 6.9704 17.5446 7.09249 17.5087 7.21999C17.4729 7.34749 17.3988 7.45707 17.2863 7.54874L13.2925 11.0112L14.5 16.1487C14.5467 16.2912 14.5421 16.4237 14.4862 16.5462C14.4304 16.6687 14.3483 16.7629 14.24 16.8287C14.1333 16.8954 14.0229 16.935 13.9088 16.9475C13.7954 16.96 13.6721 16.9333 13.5387 16.8675L9 14.1275Z" fill="#E1A50C"/>
</svg>
