<svg width="24" height="24" viewBox="0 0 24 24" fill="none" xmlns="http://www.w3.org/2000/svg">
<path d="M20 11.5V6C20 5.07174 19.6313 4.1815 18.9749 3.52513C18.3185 2.86875 17.4283 2.5 16.5 2.5C15.5717 2.5 14.6815 2.86875 14.0251 3.52513C13.3687 4.1815 13 5.07174 13 6V6.5M20 11.5V14.5C20 15.5609 19.5786 16.5783 18.8284 17.3284C18.0783 18.0786 17.0609 18.5 16 18.5H8C6.93913 18.5 5.92172 18.0786 5.17157 17.3284C4.42143 16.5783 4 15.5609 4 14.5V11.5H20ZM21.5 11.5H2.5" stroke="#009688" stroke-width="2" stroke-linecap="round"/>
<path d="M8.5 18.5L6.5 21.5M15.5 18.5L17.5 21.5" stroke="#009688" stroke-width="2" stroke-linecap="round" stroke-linejoin="round"/>
</svg>
